<?xml version="1.0" encoding="UTF-8" standalone="no"?>
<!-- Created with Inkscape (http://www.inkscape.org/) -->

<svg
   width="209.04376mm"
   height="209.83939mm"
   viewBox="0 0 209.04376 209.83939"
   version="1.1"
   id="svg503"
   inkscape:version="1.2.2 (b0a8486541, 2022-12-01)"
   sodipodi:docname="drawing-1.svg"
   xmlns:inkscape="http://www.inkscape.org/namespaces/inkscape"
   xmlns:sodipodi="http://sodipodi.sourceforge.net/DTD/sodipodi-0.dtd"
   xmlns="http://www.w3.org/2000/svg"
   xmlns:svg="http://www.w3.org/2000/svg">
  <sodipodi:namedview
     id="namedview505"
     pagecolor="#ffffff"
     bordercolor="#000000"
     borderopacity="0.25"
     inkscape:showpageshadow="2"
     inkscape:pageopacity="0.0"
     inkscape:pagecheckerboard="0"
     inkscape:deskcolor="#d1d1d1"
     inkscape:document-units="mm"
     showgrid="false"
     inkscape:zoom="0.47571549"
     inkscape:cx="662.16049"
     inkscape:cy="235.43484"
     inkscape:window-width="1328"
     inkscape:window-height="736"
     inkscape:window-x="0"
     inkscape:window-y="0"
     inkscape:window-maximized="1"
     inkscape:current-layer="layer1" />
  <defs
     id="defs500">
    <inkscape:perspective
       sodipodi:type="inkscape:persp3d"
       inkscape:vp_x="0 : 61.339382 : 1"
       inkscape:vp_y="0 : 999.99998 : 0"
       inkscape:vp_z="210 : 61.339382 : 1"
       inkscape:persp3d-origin="105 : 11.839383 : 1"
       id="perspective673" />
    <clipPath
       clipPathUnits="userSpaceOnUse"
       id="clipPath1003">
      <path
         id="path1005"
         style="fill:#ff0000;fill-opacity:1;fill-rule:nonzero;stroke:none;stroke-width:0.264583"
         d="m 115.66338,39.792782 4.24078,14.286854 40.18143,-11.927087 c -0.0157,-0.01903 -0.0299,-0.04356 -0.0414,-0.07397 -0.0335,-0.08817 -0.0173,-0.04317 -0.0502,-0.132796 -0.0355,-0.100701 -0.0736,-0.200832 -0.12094,-0.296693 -0.0576,-0.131222 -0.0964,-0.269622 -0.14285,-0.405008 -0.076,-0.240438 -0.14326,-0.483093 -0.21463,-0.724921 -0.0411,-0.142091 -0.0835,-0.284113 -0.11889,-0.427756 l -5e-4,1.51e-4 c -0.0258,-0.104474 0.0104,-0.170521 0.0617,-0.188107 0.0581,-0.02001 0.13612,0.02224 0.16571,0.140559 0.0347,0.137901 0.0749,0.274192 0.11439,0.410761 0.071,0.239953 0.13813,0.481245 0.21316,0.719968 0.0449,0.126646 0.079,0.257834 0.13402,0.380675 0.0498,0.1013 0.0896,0.206855 0.12744,0.313094 0.0327,0.08545 0.0157,0.04286 0.0485,0.128983 0.0138,0.03673 0.0185,0.06978 0.0172,0.09786 l 1.27962,-0.379831 -4.24078,-14.286854 z" />
    </clipPath>
  </defs>
  <g
     inkscape:label="Layer 1"
     inkscape:groupmode="layer"
     id="layer1"
     transform="matrix(1.5845721,0,0,1.336367,-80.680559,-86.617611)">
    <rect
       style="fill:#000000;stroke:#fffcff;stroke-width:1.17381;-inkscape-stroke:none;paint-order:stroke fill markers;stop-color:#000000"
       id="rect611"
       width="130.75061"
       height="155.84846"
       x="51.503212"
       y="65.402641"
       ry="54.121048"
       rx="44.84177" />
    <text
       xml:space="preserve"
       style="font-weight:bold;font-size:12.7px;line-height:normal;font-family:sans-serif;-inkscape-font-specification:'sans-serif, Bold';text-decoration-color:#000000;fill:#ffffff;stroke:#fffcff;stroke-width:0.344003;-inkscape-stroke:none;paint-order:stroke fill markers;stop-color:#000000"
       x="144.9623"
       y="87.919456"
       id="text849"><tspan
         sodipodi:role="line"
         id="tspan847"
         style="stroke-width:0.344003"
         x="144.9623"
         y="87.919456" /></text>
    <rect
       style="fill:#ff0000;stroke:#fffcff;stroke-width:1.13093;-inkscape-stroke:none;paint-order:stroke fill markers;stop-color:#000000"
       id="rect1009"
       width="15.866889"
       height="161.30965"
       x="-11.400834"
       y="101.87343"
       ry="3.6037836"
       transform="matrix(0.63034677,-0.7763137,0.66763681,0.74448713,0,0)"
       rx="5.5885334" />
    <text
       xml:space="preserve"
       style="font-weight:bold;font-size:88.3603px;line-height:normal;font-family:sans-serif;-inkscape-font-specification:'sans-serif, Bold';text-decoration-color:#000000;fill:#ffffff;stroke:#fffcff;stroke-width:2.39342;-inkscape-stroke:none;paint-order:stroke fill markers;stop-color:#000000"
       x="97.722122"
       y="159.76181"
       id="text853"
       transform="scale(0.89779584,1.113839)"><tspan
         sodipodi:role="line"
         id="tspan851"
         style="fill:#ffffff;stroke-width:2.39342"
         x="97.722122"
         y="159.76181">G</tspan></text>
  </g>
</svg>
